<svg xmlns="http://www.w3.org/2000/svg" xmlns:xlink="http://www.w3.org/1999/xlink" width="1080" zoomAndPan="magnify" viewBox="0 0 810 809.999993" height="1080" preserveAspectRatio="xMidYMid meet" version="1.0"><defs><clipPath id="49beb159a3"><path d="M 0 49.105469 L 810 49.105469 L 810 760.855469 L 0 760.855469 Z M 0 49.105469 " clip-rule="nonzero"/></clipPath></defs><g clip-path="url(#49beb159a3)"><path fill="#ff1616" d="M 406.292969 49.238281 L 407.765625 50.710938 L 415.140625 50.710938 L 418.089844 52.1875 L 419.566406 52.1875 L 422.515625 53.660156 L 425.464844 55.136719 L 428.414062 56.609375 L 431.363281 58.085938 L 432.835938 61.035156 L 434.3125 62.507812 L 437.261719 63.984375 L 438.734375 66.933594 L 440.210938 68.40625 L 443.160156 71.355469 L 623.441406 383.976562 L 801.878906 694.75 L 803.355469 697.699219 L 806.304688 703.597656 L 807.777344 706.546875 L 807.777344 713.921875 L 809.253906 716.871094 L 807.777344 721.292969 L 807.777344 727.191406 L 806.304688 730.140625 L 804.828125 733.089844 L 804.828125 736.039062 L 803.355469 737.515625 L 801.878906 738.988281 L 800.40625 741.9375 L 795.980469 746.363281 L 794.503906 749.3125 L 793.03125 750.789062 L 790.082031 752.261719 L 787.132812 753.738281 L 784.183594 755.210938 L 782.707031 756.6875 L 779.757812 758.160156 L 776.808594 758.160156 L 773.859375 759.636719 L 767.960938 759.636719 L 765.011719 761.113281 L 404.816406 761.113281 L 46.097656 759.636719 L 35.777344 759.636719 L 32.828125 758.160156 L 29.878906 758.160156 L 26.925781 756.6875 L 25.453125 755.210938 L 22.503906 753.738281 L 19.554688 752.261719 L 16.605469 750.789062 L 12.179688 746.363281 L 10.707031 743.414062 L 9.230469 741.941406 L 7.757812 738.992188 L 6.28125 737.515625 L 4.808594 736.039062 L 4.808594 733.089844 L 3.332031 731.617188 L 3.332031 728.667969 L 1.859375 727.191406 L 1.859375 721.292969 L 0.382812 716.871094 L 1.859375 713.921875 L 1.859375 706.546875 L 4.808594 700.648438 L 4.808594 697.699219 L 7.757812 694.75 L 186.195312 383.976562 L 366.476562 72.832031 L 367.949219 69.882812 L 370.898438 66.933594 L 372.375 63.984375 L 373.847656 62.507812 L 376.796875 59.558594 L 378.273438 58.085938 L 381.222656 56.609375 L 382.699219 55.136719 L 387.121094 53.660156 L 390.070312 52.1875 L 393.019531 52.1875 L 395.96875 50.710938 L 403.34375 50.710938 L 406.292969 49.238281 " fill-opacity="1" fill-rule="evenodd"/></g><path fill="#ffffff" d="M 409.242188 71.359375 L 410.714844 72.832031 L 413.667969 74.304688 L 416.617188 75.78125 L 418.089844 75.78125 L 419.566406 78.730469 L 423.988281 83.152344 L 782.707031 705.074219 L 785.65625 708.023438 L 785.65625 710.972656 L 787.132812 712.449219 L 787.132812 718.347656 L 785.65625 722.769531 L 784.183594 725.71875 L 782.707031 728.667969 L 776.808594 734.566406 L 773.859375 736.042969 L 770.910156 737.515625 L 766.488281 738.992188 L 41.675781 738.992188 L 40.199219 737.515625 L 37.25 737.515625 L 35.777344 736.042969 L 34.300781 736.042969 L 32.828125 734.566406 L 29.878906 733.09375 L 26.929688 730.144531 L 25.453125 725.71875 L 23.976562 722.769531 L 22.503906 718.347656 L 22.503906 715.398438 L 23.976562 710.972656 L 25.453125 708.023438 L 25.453125 705.074219 L 26.929688 705.074219 L 385.648438 83.152344 L 385.648438 81.679688 L 387.121094 80.203125 L 388.597656 78.730469 L 391.546875 75.78125 L 393.019531 74.304688 L 394.496094 74.304688 L 395.96875 72.832031 L 400.394531 72.832031 L 401.867188 71.359375 Z M 711.921875 685.90625 L 97.714844 685.90625 L 404.816406 153.9375 L 711.921875 685.90625 " fill-opacity="1" fill-rule="evenodd"/><path fill="#ffffff" d="M 354.679688 302.871094 L 356.152344 299.921875 L 356.152344 295.5 L 357.628906 292.550781 L 357.628906 288.125 L 359.101562 286.652344 L 359.101562 285.175781 L 363.527344 277.804688 L 366.476562 271.90625 L 372.375 267.480469 L 376.796875 263.058594 L 384.171875 260.109375 L 390.070312 257.160156 L 397.445312 255.683594 L 403.34375 255.683594 L 410.714844 257.160156 L 416.617188 258.632812 L 423.988281 260.109375 L 428.414062 264.53125 L 434.3125 267.480469 L 438.734375 271.90625 L 443.160156 277.804688 L 446.109375 282.226562 L 446.109375 285.175781 L 447.585938 286.652344 L 449.058594 289.601562 L 449.058594 292.550781 L 450.535156 295.5 L 450.535156 302.871094 L 432.835938 497.152344 L 431.363281 503.050781 L 429.886719 507.476562 L 425.464844 511.898438 L 422.515625 516.324219 L 418.089844 519.273438 L 413.667969 520.746094 L 409.242188 522.222656 L 398.917969 522.222656 L 393.019531 520.746094 L 388.597656 519.273438 L 379.75 513.375 L 376.796875 508.949219 L 373.847656 503.050781 L 372.375 497.152344 Z M 403.34375 551.714844 L 413.667969 553.1875 L 422.515625 556.136719 L 429.886719 560.5625 L 437.261719 566.460938 L 443.160156 573.835938 L 447.585938 581.207031 L 450.535156 590.054688 L 452.007812 600.378906 L 450.535156 609.226562 L 447.585938 618.074219 L 443.160156 626.921875 L 437.261719 634.292969 L 429.886719 640.191406 L 422.515625 644.617188 L 413.667969 647.566406 L 394.496094 647.566406 L 385.648438 644.617188 L 376.796875 640.191406 L 369.425781 634.292969 L 363.527344 626.921875 L 359.101562 618.074219 L 356.152344 609.226562 L 356.152344 590.054688 L 359.101562 581.207031 L 363.527344 573.832031 L 369.425781 566.460938 L 376.796875 560.5625 L 385.648438 556.136719 L 394.496094 553.1875 L 403.34375 551.714844 " fill-opacity="1" fill-rule="evenodd"/></svg>