<svg xmlns="http://www.w3.org/2000/svg" xmlns:xlink="http://www.w3.org/1999/xlink" width="1080" zoomAndPan="magnify" viewBox="0 0 810 809.999993" height="1080" preserveAspectRatio="xMidYMid meet" version="1.0"><path fill="#ffffff" d="M 499.023438 107.527344 L 572.824219 107.527344 C 583.296875 107.527344 591.796875 99.023438 591.796875 88.542969 C 591.796875 78.0625 583.296875 69.558594 572.824219 69.558594 L 499.023438 69.558594 C 488.546875 69.558594 480.046875 78.0625 480.046875 88.542969 C 480.046875 99.023438 488.546875 107.527344 499.023438 107.527344 Z M 499.023438 107.527344 " fill-opacity="1" fill-rule="nonzero"/><path fill="#ffffff" d="M 572.824219 196.121094 L 499.023438 196.121094 C 488.546875 196.121094 480.046875 204.625 480.046875 215.105469 C 480.046875 225.585938 488.546875 234.089844 499.023438 234.089844 L 572.824219 234.089844 C 583.296875 234.089844 591.796875 225.585938 591.796875 215.105469 C 591.796875 204.625 583.296875 196.121094 572.824219 196.121094 Z M 572.824219 196.121094 " fill-opacity="1" fill-rule="nonzero"/><path fill="#ffffff" d="M 572.824219 322.683594 L 499.023438 322.683594 C 488.546875 322.683594 480.046875 331.1875 480.046875 341.667969 C 480.046875 352.148438 488.546875 360.652344 499.023438 360.652344 L 572.824219 360.652344 C 583.296875 360.652344 591.796875 352.148438 591.796875 341.667969 C 591.796875 331.1875 583.296875 322.683594 572.824219 322.683594 Z M 572.824219 322.683594 " fill-opacity="1" fill-rule="nonzero"/><path fill="#ffffff" d="M 572.824219 449.246094 L 499.023438 449.246094 C 488.546875 449.246094 480.046875 457.75 480.046875 468.230469 C 480.046875 478.710938 488.546875 487.214844 499.023438 487.214844 L 572.824219 487.214844 C 583.296875 487.214844 591.796875 478.710938 591.796875 468.230469 C 591.796875 457.75 583.296875 449.246094 572.824219 449.246094 Z M 572.824219 449.246094 " fill-opacity="1" fill-rule="nonzero"/><path fill="#ffffff" d="M 440.730469 510.65625 L 440.730469 66.089844 C 440.730469 29.617188 411.128906 0 374.621094 0 C 338.164062 0 308.5625 29.617188 308.5625 66.089844 L 308.5625 510.65625 C 254.929688 535.613281 217.6875 589.855469 217.6875 652.9375 C 217.6875 739.707031 287.945312 810 374.621094 810 C 461.351562 810 531.609375 739.707031 531.609375 652.9375 C 531.609375 589.855469 494.367188 535.613281 440.730469 510.65625 Z M 374.621094 758.792969 C 316.304688 758.792969 268.867188 711.332031 268.867188 652.9375 C 268.867188 603.246094 302.796875 560.875 351.347656 549.914062 L 353.394531 549.40625 L 353.394531 303.242188 L 395.898438 303.242188 L 395.898438 549.457031 L 397.921875 549.914062 C 446.5 560.898438 480.425781 603.246094 480.425781 652.9375 C 480.425781 711.332031 432.964844 758.792969 374.621094 758.792969 Z M 374.621094 758.792969 " fill-opacity="1" fill-rule="nonzero"/></svg>