<svg xmlns="http://www.w3.org/2000/svg" xmlns:xlink="http://www.w3.org/1999/xlink" width="1080" zoomAndPan="magnify" viewBox="0 0 810 809.999993" height="1080" preserveAspectRatio="xMidYMid meet" version="1.0"><defs><clipPath id="7500cec2ee"><path d="M 0.902344 82 L 484 82 L 484 764.707031 L 0.902344 764.707031 Z M 0.902344 82 " clip-rule="nonzero"/></clipPath><clipPath id="a8bc789f01"><path d="M 471 45.457031 L 613 45.457031 L 613 257 L 471 257 Z M 471 45.457031 " clip-rule="nonzero"/></clipPath></defs><g clip-path="url(#7500cec2ee)"><path fill="#ffffff" d="M 407.136719 685.058594 C 386.164062 690.320312 364.230469 693.125 341.652344 693.125 C 193.042969 693.125 72.144531 572.214844 72.144531 423.601562 C 72.144531 274.984375 193.042969 154.078125 341.652344 154.078125 C 375.835938 154.078125 408.546875 160.488281 438.667969 172.152344 C 441.671875 146.902344 452.660156 124.789062 465.15625 105.8125 C 426.300781 90.722656 384.582031 82.832031 341.652344 82.832031 C 250.636719 82.832031 165.0625 118.277344 100.703125 182.640625 C 36.347656 247.003906 0.902344 332.578125 0.902344 423.601562 C 0.902344 514.625 36.347656 600.199219 100.703125 664.5625 C 165.0625 728.925781 250.636719 764.371094 341.652344 764.371094 C 391.527344 764.371094 439.761719 753.699219 483.773438 733.488281 C 453.964844 724.5 427.582031 707.53125 407.136719 685.058594 " fill-opacity="1" fill-rule="nonzero"/></g><g clip-path="url(#a8bc789f01)"><path fill="#ffffff" d="M 612.71875 185.757812 C 612.71875 123.871094 541.90625 79.53125 541.90625 45.660156 C 541.90625 79.53125 471.089844 123.871094 471.089844 185.757812 C 471.089844 224.871094 502.792969 256.578125 541.90625 256.578125 C 581.015625 256.578125 612.71875 224.871094 612.71875 185.757812 " fill-opacity="1" fill-rule="nonzero"/></g><path fill="#ffffff" d="M 532.707031 300.738281 C 532.707031 366.046875 396.15625 451.542969 396.15625 570.882812 C 396.15625 646.296875 457.292969 707.4375 532.707031 707.4375 C 608.125 707.4375 669.253906 646.296875 669.253906 570.882812 C 669.253906 451.542969 532.707031 366.046875 532.707031 300.738281 " fill-opacity="1" fill-rule="nonzero"/><path fill="#ffffff" d="M 727.523438 177.496094 C 727.523438 217.015625 644.894531 268.753906 644.894531 340.96875 C 644.894531 386.605469 681.886719 423.601562 727.523438 423.601562 C 773.160156 423.601562 810.152344 386.605469 810.152344 340.96875 C 810.152344 268.753906 727.523438 217.015625 727.523438 177.496094 " fill-opacity="1" fill-rule="nonzero"/><path fill="#ffffff" d="M 169.050781 360.117188 C 169.050781 349.238281 174.492188 343.792969 179.933594 343.792969 C 185.367188 343.792969 190.808594 349.238281 190.808594 360.117188 C 190.808594 370.992188 185.367188 376.429688 179.933594 376.429688 C 174.492188 376.429688 169.050781 370.992188 169.050781 360.117188 Z M 232.957031 360.117188 C 232.957031 332.921875 212.5625 312.527344 179.933594 312.527344 C 147.300781 312.527344 126.90625 332.921875 126.90625 360.117188 C 126.90625 387.308594 147.300781 407.703125 179.933594 407.703125 C 212.5625 407.703125 232.957031 387.308594 232.957031 360.117188 " fill-opacity="1" fill-rule="nonzero"/><path fill="#ffffff" d="M 326.765625 466.171875 C 326.765625 477.050781 321.332031 482.488281 315.894531 482.488281 C 310.457031 482.488281 305.015625 477.050781 305.015625 466.171875 C 305.015625 455.292969 310.457031 449.851562 315.894531 449.851562 C 321.332031 449.851562 326.765625 455.292969 326.765625 466.171875 Z M 262.867188 466.171875 C 262.867188 493.367188 283.261719 513.761719 315.894531 513.761719 C 348.523438 513.761719 368.921875 493.367188 368.921875 466.171875 C 368.921875 438.980469 348.523438 418.582031 315.894531 418.582031 C 283.261719 418.582031 262.867188 438.980469 262.867188 466.171875 " fill-opacity="1" fill-rule="nonzero"/><path fill="#ffffff" d="M 298.21875 317.964844 C 290.0625 317.964844 285.167969 323.40625 281.902344 327.480469 L 151.648438 498.808594 C 148.660156 502.882812 151.382812 508.320312 158.179688 508.320312 L 197.609375 508.320312 C 205.765625 508.320312 210.929688 502.882812 213.921875 498.808594 L 344.175781 327.480469 C 347.164062 323.40625 344.449219 317.964844 337.644531 317.964844 L 298.21875 317.964844 " fill-opacity="1" fill-rule="nonzero"/></svg>