<svg xmlns="http://www.w3.org/2000/svg" xmlns:xlink="http://www.w3.org/1999/xlink" width="1080" zoomAndPan="magnify" viewBox="0 0 810 809.999993" height="1080" preserveAspectRatio="xMidYMid meet" version="1.0"><defs><clipPath id="8698d1852e"><path d="M 2.761719 440.207031 L 522.804688 440.207031 L 522.804688 702.933594 L 2.761719 702.933594 Z M 2.761719 440.207031 " clip-rule="nonzero"/></clipPath></defs><path fill="#ffffff" d="M 435.515625 417.773438 L 166.769531 417.773438 C 147.914062 417.773438 132.628906 402.484375 132.628906 383.625 C 132.628906 364.765625 147.914062 349.476562 166.769531 349.476562 L 435.515625 349.476562 C 465.0625 349.476562 498.347656 320.523438 511.296875 283.5625 C 517.4375 266.03125 523.390625 233.148438 494.277344 209.886719 C 463.171875 185.027344 432.789062 188.109375 416.484375 202.183594 C 411.476562 206.503906 400.785156 218.175781 409.558594 233.265625 C 419.035156 249.570312 413.515625 270.464844 397.210938 279.949219 C 380.917969 289.425781 360.015625 283.902344 350.539062 267.605469 C 327.675781 228.285156 336.253906 181.214844 371.882812 150.472656 C 408.335938 119.011719 475.523438 107.488281 536.898438 156.523438 C 581.539062 192.195312 596.058594 248.128906 575.730469 306.148438 C 553.074219 370.828125 494.105469 417.773438 435.515625 417.773438 " fill-opacity="1" fill-rule="nonzero"/><g clip-path="url(#8698d1852e)"><path fill="#ffffff" d="M 398.886719 702.957031 C 360 702.960938 325.1875 680.09375 302.648438 638.464844 C 293.675781 621.882812 299.835938 601.160156 316.414062 592.179688 C 333.015625 583.203125 353.714844 589.371094 362.695312 605.949219 C 375.015625 628.707031 390.324219 637.929688 408.160156 633.425781 C 430.1875 627.839844 453.960938 601.167969 453.960938 567.804688 C 453.960938 516.359375 382.828125 508.683594 340.429688 508.683594 L 36.902344 508.683594 C 18.046875 508.683594 2.761719 493.394531 2.761719 474.535156 C 2.761719 455.671875 18.046875 440.386719 36.902344 440.386719 L 340.429688 440.386719 C 454.269531 440.386719 522.238281 488.015625 522.238281 567.804688 C 522.238281 628.898438 480.402344 685.566406 424.929688 699.625 C 416.109375 701.863281 407.402344 702.957031 398.886719 702.957031 " fill-opacity="1" fill-rule="nonzero"/></g><path fill="#ffffff" d="M 702.359375 640.449219 C 682.140625 640.449219 659.949219 635.734375 641.523438 623.910156 C 621.425781 611.023438 608.988281 591.910156 605.546875 568.648438 C 602.785156 549.988281 615.667969 532.628906 634.320312 529.871094 C 652.980469 527.078125 670.335938 539.996094 673.085938 558.648438 C 673.539062 561.714844 674.554688 563.964844 678.382812 566.421875 C 687.8125 572.46875 705.410156 573.472656 715.316406 570.589844 C 721.722656 568.722656 730.792969 563.542969 735.203125 555.117188 C 739.011719 547.863281 739.015625 538.425781 735.234375 527.082031 C 725.714844 498.511719 674.597656 495.425781 653.070312 495.425781 L 536.980469 495.425781 C 518.121094 495.425781 502.839844 480.140625 502.839844 461.277344 C 502.839844 442.417969 518.121094 427.132812 536.980469 427.132812 L 653.070312 427.132812 C 730.984375 427.132812 783.171875 454.953125 800.011719 505.484375 C 812.308594 542.390625 804.449219 570.082031 795.683594 586.8125 C 783.5 610.074219 760.59375 628.523438 734.417969 636.160156 C 725.144531 638.859375 714.082031 640.441406 702.359375 640.449219 " fill-opacity="1" fill-rule="nonzero"/></svg>